<mxfile host="app.diagrams.net" agent="Mozilla/5.0 (Windows NT 10.0; Win64; x64) AppleWebKit/537.36 (KHTML, like Gecko) Chrome/133.0.0.0 Safari/537.36" version="26.0.16">
  <diagram name="Page-1" id="lhVvdgo-Cbiv11EMsBuQ">
    <mxGraphModel dx="1434" dy="833" grid="1" gridSize="10" guides="1" tooltips="1" connect="1" arrows="1" fold="1" page="1" pageScale="1" pageWidth="827" pageHeight="1169" math="0" shadow="0">
      <root>
        <mxCell id="0" />
        <mxCell id="1" parent="0" />
        <mxCell id="tF_UOsSexNOaOGYy29BZ-62" value="" style="rounded=1;whiteSpace=wrap;html=1;fillColor=none;dashed=1;strokeWidth=2;strokeColor=#757575;" vertex="1" parent="1">
          <mxGeometry x="25" y="190" width="545" height="510" as="geometry" />
        </mxCell>
        <mxCell id="tF_UOsSexNOaOGYy29BZ-21" style="edgeStyle=orthogonalEdgeStyle;rounded=0;orthogonalLoop=1;jettySize=auto;html=1;exitX=1;exitY=0.5;exitDx=0;exitDy=0;" edge="1" parent="1" source="tF_UOsSexNOaOGYy29BZ-14" target="tF_UOsSexNOaOGYy29BZ-11">
          <mxGeometry relative="1" as="geometry" />
        </mxCell>
        <mxCell id="tF_UOsSexNOaOGYy29BZ-27" value="" style="group;movable=1;resizable=1;rotatable=1;deletable=1;editable=1;locked=0;connectable=1;" vertex="1" connectable="0" parent="1">
          <mxGeometry x="25" y="310" width="205" height="120" as="geometry" />
        </mxCell>
        <mxCell id="tF_UOsSexNOaOGYy29BZ-13" value="&lt;font style=&quot;font-size: 17px;&quot;&gt;crm_sales_details&lt;/font&gt;" style="swimlane;fontStyle=0;childLayout=stackLayout;horizontal=1;startSize=30;horizontalStack=0;resizeParent=1;resizeParentMax=0;resizeLast=0;collapsible=1;marginBottom=0;whiteSpace=wrap;html=1;rounded=1;fillColor=#dae8fc;strokeColor=#6c8ebf;" vertex="1" parent="tF_UOsSexNOaOGYy29BZ-27">
          <mxGeometry x="12.5" y="30" width="180" height="90" as="geometry" />
        </mxCell>
        <mxCell id="tF_UOsSexNOaOGYy29BZ-14" value="prd_key" style="text;strokeColor=none;fillColor=none;align=left;verticalAlign=middle;spacingLeft=4;spacingRight=4;overflow=hidden;points=[[0,0.5],[1,0.5]];portConstraint=eastwest;rotatable=1;whiteSpace=wrap;html=1;fontSize=19;movable=1;resizable=1;deletable=1;editable=1;locked=0;connectable=1;" vertex="1" parent="tF_UOsSexNOaOGYy29BZ-13">
          <mxGeometry y="30" width="180" height="30" as="geometry" />
        </mxCell>
        <mxCell id="tF_UOsSexNOaOGYy29BZ-15" value="cst_id" style="text;strokeColor=none;fillColor=none;align=left;verticalAlign=middle;spacingLeft=4;spacingRight=4;overflow=hidden;points=[[0,0.5],[1,0.5]];portConstraint=eastwest;rotatable=1;whiteSpace=wrap;html=1;fontSize=19;movable=1;resizable=1;deletable=1;editable=1;locked=0;connectable=1;" vertex="1" parent="tF_UOsSexNOaOGYy29BZ-13">
          <mxGeometry y="60" width="180" height="30" as="geometry" />
        </mxCell>
        <mxCell id="tF_UOsSexNOaOGYy29BZ-16" value="Transactional Records about Sales &amp;amp; Orders" style="text;html=1;align=center;verticalAlign=middle;whiteSpace=wrap;rounded=0;" vertex="1" parent="tF_UOsSexNOaOGYy29BZ-27">
          <mxGeometry width="205" height="30" as="geometry" />
        </mxCell>
        <mxCell id="tF_UOsSexNOaOGYy29BZ-37" value="" style="group" vertex="1" connectable="0" parent="1">
          <mxGeometry x="311" y="260" width="205" height="90" as="geometry" />
        </mxCell>
        <mxCell id="tF_UOsSexNOaOGYy29BZ-10" value="&lt;font style=&quot;font-size: 17px;&quot;&gt;crm_prd_info&lt;/font&gt;" style="swimlane;fontStyle=0;childLayout=stackLayout;horizontal=1;startSize=30;horizontalStack=0;resizeParent=1;resizeParentMax=0;resizeLast=0;collapsible=1;marginBottom=0;whiteSpace=wrap;html=1;rounded=1;fillColor=#dae8fc;strokeColor=#6c8ebf;" vertex="1" parent="tF_UOsSexNOaOGYy29BZ-37">
          <mxGeometry x="12.5" y="30" width="180" height="60" as="geometry" />
        </mxCell>
        <mxCell id="tF_UOsSexNOaOGYy29BZ-11" value="prd_key" style="text;strokeColor=none;fillColor=none;align=left;verticalAlign=middle;spacingLeft=4;spacingRight=4;overflow=hidden;points=[[0,0.5],[1,0.5]];portConstraint=eastwest;rotatable=0;whiteSpace=wrap;html=1;fontSize=19;" vertex="1" parent="tF_UOsSexNOaOGYy29BZ-10">
          <mxGeometry y="30" width="180" height="30" as="geometry" />
        </mxCell>
        <mxCell id="tF_UOsSexNOaOGYy29BZ-12" value="Current &amp;amp; History Product Information" style="text;html=1;align=center;verticalAlign=middle;whiteSpace=wrap;rounded=0;" vertex="1" parent="tF_UOsSexNOaOGYy29BZ-37">
          <mxGeometry width="205" height="30" as="geometry" />
        </mxCell>
        <mxCell id="tF_UOsSexNOaOGYy29BZ-47" value="" style="group" vertex="1" connectable="0" parent="1">
          <mxGeometry x="329" y="500" width="170" height="110" as="geometry" />
        </mxCell>
        <mxCell id="tF_UOsSexNOaOGYy29BZ-40" value="&lt;font&gt;crm_cust_info&lt;/font&gt;" style="swimlane;fontStyle=0;childLayout=stackLayout;horizontal=1;startSize=30;horizontalStack=0;resizeParent=1;resizeParentMax=0;resizeLast=0;collapsible=1;marginBottom=0;whiteSpace=wrap;html=1;rounded=1;fillColor=#dae8fc;strokeColor=#6c8ebf;fontSize=17;" vertex="1" parent="tF_UOsSexNOaOGYy29BZ-47">
          <mxGeometry y="20" width="170" height="90" as="geometry" />
        </mxCell>
        <mxCell id="tF_UOsSexNOaOGYy29BZ-41" value="cst_id" style="text;strokeColor=none;fillColor=none;align=left;verticalAlign=middle;spacingLeft=4;spacingRight=4;overflow=hidden;points=[[0,0.5],[1,0.5]];portConstraint=eastwest;rotatable=0;whiteSpace=wrap;html=1;fontSize=17;" vertex="1" parent="tF_UOsSexNOaOGYy29BZ-40">
          <mxGeometry y="30" width="170" height="30" as="geometry" />
        </mxCell>
        <mxCell id="tF_UOsSexNOaOGYy29BZ-42" value="cst_key" style="text;strokeColor=none;fillColor=none;align=left;verticalAlign=middle;spacingLeft=4;spacingRight=4;overflow=hidden;points=[[0,0.5],[1,0.5]];portConstraint=eastwest;rotatable=0;whiteSpace=wrap;html=1;rounded=1;fontSize=17;" vertex="1" parent="tF_UOsSexNOaOGYy29BZ-40">
          <mxGeometry y="60" width="170" height="30" as="geometry" />
        </mxCell>
        <mxCell id="tF_UOsSexNOaOGYy29BZ-46" value="Customer Information" style="text;html=1;align=center;verticalAlign=middle;whiteSpace=wrap;rounded=0;" vertex="1" parent="tF_UOsSexNOaOGYy29BZ-47">
          <mxGeometry x="12.142857142857142" width="145.7142857142857" height="20" as="geometry" />
        </mxCell>
        <mxCell id="tF_UOsSexNOaOGYy29BZ-48" style="edgeStyle=orthogonalEdgeStyle;rounded=0;orthogonalLoop=1;jettySize=auto;html=1;exitX=1;exitY=0.5;exitDx=0;exitDy=0;entryX=0;entryY=0.5;entryDx=0;entryDy=0;" edge="1" parent="1" source="tF_UOsSexNOaOGYy29BZ-15" target="tF_UOsSexNOaOGYy29BZ-41">
          <mxGeometry relative="1" as="geometry" />
        </mxCell>
        <mxCell id="tF_UOsSexNOaOGYy29BZ-49" style="edgeStyle=orthogonalEdgeStyle;rounded=0;orthogonalLoop=1;jettySize=auto;html=1;entryX=1.018;entryY=0.361;entryDx=0;entryDy=0;entryPerimeter=0;" edge="1" parent="1" source="tF_UOsSexNOaOGYy29BZ-30" target="tF_UOsSexNOaOGYy29BZ-42">
          <mxGeometry relative="1" as="geometry" />
        </mxCell>
        <mxCell id="tF_UOsSexNOaOGYy29BZ-54" style="edgeStyle=orthogonalEdgeStyle;rounded=0;orthogonalLoop=1;jettySize=auto;html=1;entryX=1.016;entryY=0.38;entryDx=0;entryDy=0;entryPerimeter=0;" edge="1" parent="1" source="tF_UOsSexNOaOGYy29BZ-52" target="tF_UOsSexNOaOGYy29BZ-42">
          <mxGeometry relative="1" as="geometry" />
        </mxCell>
        <mxCell id="tF_UOsSexNOaOGYy29BZ-55" value="" style="group" vertex="1" connectable="0" parent="1">
          <mxGeometry x="730" y="550" width="205" height="90" as="geometry" />
        </mxCell>
        <mxCell id="tF_UOsSexNOaOGYy29BZ-50" value="Location of Customers(Country)" style="text;html=1;align=center;verticalAlign=middle;whiteSpace=wrap;rounded=0;" vertex="1" parent="tF_UOsSexNOaOGYy29BZ-55">
          <mxGeometry width="205" height="30" as="geometry" />
        </mxCell>
        <mxCell id="tF_UOsSexNOaOGYy29BZ-51" value="&lt;font style=&quot;font-size: 17px;&quot;&gt;erp_loc_a101&lt;/font&gt;" style="swimlane;fontStyle=0;childLayout=stackLayout;horizontal=1;startSize=30;horizontalStack=0;resizeParent=1;resizeParentMax=0;resizeLast=0;collapsible=1;marginBottom=0;whiteSpace=wrap;html=1;rounded=1;fillColor=#fff2cc;strokeColor=#d6b656;" vertex="1" parent="tF_UOsSexNOaOGYy29BZ-55">
          <mxGeometry x="12.5" y="30" width="180" height="60" as="geometry" />
        </mxCell>
        <mxCell id="tF_UOsSexNOaOGYy29BZ-52" value="cid" style="text;strokeColor=none;fillColor=none;align=left;verticalAlign=middle;spacingLeft=4;spacingRight=4;overflow=hidden;points=[[0,0.5],[1,0.5]];portConstraint=eastwest;rotatable=0;whiteSpace=wrap;html=1;fontSize=19;" vertex="1" parent="tF_UOsSexNOaOGYy29BZ-51">
          <mxGeometry y="30" width="180" height="30" as="geometry" />
        </mxCell>
        <mxCell id="tF_UOsSexNOaOGYy29BZ-56" value="" style="group" vertex="1" connectable="0" parent="1">
          <mxGeometry x="730" y="380" width="205" height="90" as="geometry" />
        </mxCell>
        <mxCell id="tF_UOsSexNOaOGYy29BZ-29" value="&lt;font style=&quot;font-size: 17px;&quot;&gt;erp_cust_az12&lt;/font&gt;" style="swimlane;fontStyle=0;childLayout=stackLayout;horizontal=1;startSize=30;horizontalStack=0;resizeParent=1;resizeParentMax=0;resizeLast=0;collapsible=1;marginBottom=0;whiteSpace=wrap;html=1;rounded=1;fillColor=#fff2cc;strokeColor=#d6b656;" vertex="1" parent="tF_UOsSexNOaOGYy29BZ-56">
          <mxGeometry x="12.5" y="30" width="180" height="60" as="geometry" />
        </mxCell>
        <mxCell id="tF_UOsSexNOaOGYy29BZ-30" value="cid" style="text;strokeColor=none;fillColor=none;align=left;verticalAlign=middle;spacingLeft=4;spacingRight=4;overflow=hidden;points=[[0,0.5],[1,0.5]];portConstraint=eastwest;rotatable=0;whiteSpace=wrap;html=1;fontSize=19;movable=0;resizable=0;deletable=0;editable=0;locked=1;connectable=0;" vertex="1" parent="tF_UOsSexNOaOGYy29BZ-29">
          <mxGeometry y="30" width="180" height="30" as="geometry" />
        </mxCell>
        <mxCell id="tF_UOsSexNOaOGYy29BZ-31" value="Extra Customer Information (Birthdate)" style="text;html=1;align=center;verticalAlign=middle;whiteSpace=wrap;rounded=0;" vertex="1" parent="tF_UOsSexNOaOGYy29BZ-56">
          <mxGeometry width="205" height="30" as="geometry" />
        </mxCell>
        <mxCell id="tF_UOsSexNOaOGYy29BZ-57" value="" style="group" vertex="1" connectable="0" parent="1">
          <mxGeometry x="720" y="270" width="205" height="90" as="geometry" />
        </mxCell>
        <mxCell id="tF_UOsSexNOaOGYy29BZ-58" value="&lt;font style=&quot;font-size: 17px;&quot;&gt;erp_px_cat_g1v2&lt;/font&gt;" style="swimlane;fontStyle=0;childLayout=stackLayout;horizontal=1;startSize=30;horizontalStack=0;resizeParent=1;resizeParentMax=0;resizeLast=0;collapsible=1;marginBottom=0;whiteSpace=wrap;html=1;rounded=1;fillColor=#fff2cc;strokeColor=#d6b656;container=0;" vertex="1" parent="tF_UOsSexNOaOGYy29BZ-57">
          <mxGeometry x="12.5" y="30" width="180" height="60" as="geometry" />
        </mxCell>
        <mxCell id="tF_UOsSexNOaOGYy29BZ-60" value="Customer Category" style="text;html=1;align=center;verticalAlign=middle;whiteSpace=wrap;rounded=0;" vertex="1" parent="tF_UOsSexNOaOGYy29BZ-57">
          <mxGeometry width="205" height="30" as="geometry" />
        </mxCell>
        <mxCell id="tF_UOsSexNOaOGYy29BZ-59" value="id" style="text;strokeColor=none;fillColor=none;align=left;verticalAlign=middle;spacingLeft=4;spacingRight=4;overflow=hidden;points=[[0,0.5],[1,0.5]];portConstraint=eastwest;rotatable=1;whiteSpace=wrap;html=1;fontSize=19;movable=1;resizable=1;deletable=1;editable=1;locked=0;connectable=1;" vertex="1" parent="tF_UOsSexNOaOGYy29BZ-57">
          <mxGeometry x="12.5" y="60" width="180" height="30" as="geometry" />
        </mxCell>
        <mxCell id="tF_UOsSexNOaOGYy29BZ-61" style="edgeStyle=orthogonalEdgeStyle;rounded=0;orthogonalLoop=1;jettySize=auto;html=1;entryX=1;entryY=0.5;entryDx=0;entryDy=0;" edge="1" parent="1" source="tF_UOsSexNOaOGYy29BZ-59" target="tF_UOsSexNOaOGYy29BZ-11">
          <mxGeometry relative="1" as="geometry" />
        </mxCell>
        <mxCell id="tF_UOsSexNOaOGYy29BZ-63" value="" style="rounded=1;whiteSpace=wrap;html=1;fillColor=none;dashed=1;strokeWidth=2;strokeColor=#757575;" vertex="1" parent="1">
          <mxGeometry x="600" y="180" width="545" height="510" as="geometry" />
        </mxCell>
        <mxCell id="tF_UOsSexNOaOGYy29BZ-65" value="&lt;font style=&quot;font-size: 28px;&quot;&gt;CRM&lt;/font&gt;" style="rounded=1;whiteSpace=wrap;html=1;fillColor=#dae8fc;strokeColor=#6c8ebf;" vertex="1" parent="1">
          <mxGeometry x="207.5" y="170" width="180" height="40" as="geometry" />
        </mxCell>
        <mxCell id="tF_UOsSexNOaOGYy29BZ-66" value="&lt;font style=&quot;font-size: 28px;&quot;&gt;ERP&lt;/font&gt;" style="rounded=1;whiteSpace=wrap;html=1;fillColor=#fff2cc;strokeColor=#d6b656;" vertex="1" parent="1">
          <mxGeometry x="782.5" y="160" width="180" height="40" as="geometry" />
        </mxCell>
      </root>
    </mxGraphModel>
  </diagram>
</mxfile>
